<mxfile host="app.diagrams.net" modified="2024-07-23T13:19:18.989Z" agent="Mozilla/5.0 (Windows NT 10.0; Win64; x64) AppleWebKit/537.36 (KHTML, like Gecko) Chrome/126.0.0.0 Safari/537.36 Edg/126.0.0.0" etag="LuE-fG5gn4xZNRteV95Y" version="24.7.3" type="github">
  <diagram name="Page-1" id="oD3bbeozOGptEu1nKLs6">
    <mxGraphModel dx="2907" dy="1203" grid="1" gridSize="10" guides="1" tooltips="1" connect="1" arrows="1" fold="1" page="1" pageScale="1" pageWidth="827" pageHeight="1169" math="0" shadow="0">
      <root>
        <mxCell id="0" />
        <mxCell id="1" parent="0" />
        <mxCell id="ogzNA6DxqtYgM_odpDpJ-2" value="c" style="verticalLabelPosition=bottom;shadow=0;dashed=0;align=center;html=1;verticalAlign=top;shape=mxgraph.electrical.logic_gates.logic_gate;operation=xor;strokeWidth=3;" parent="1" vertex="1">
          <mxGeometry x="314" y="820" width="226" height="180" as="geometry" />
        </mxCell>
        <mxCell id="ogzNA6DxqtYgM_odpDpJ-6" style="edgeStyle=none;rounded=0;orthogonalLoop=1;jettySize=auto;html=1;strokeWidth=3;" parent="1" edge="1">
          <mxGeometry relative="1" as="geometry">
            <mxPoint x="480" y="360" as="targetPoint" />
            <mxPoint x="400" y="360" as="sourcePoint" />
          </mxGeometry>
        </mxCell>
        <mxCell id="ogzNA6DxqtYgM_odpDpJ-7" value="&lt;font style=&quot;font-size: 30px;&quot;&gt;16_Bit_Unsigned_Multiplier&lt;/font&gt;" style="whiteSpace=wrap;html=1;aspect=fixed;strokeWidth=3;perimeterSpacing=8;" parent="1" vertex="1">
          <mxGeometry x="200" y="260" width="420" height="420" as="geometry" />
        </mxCell>
        <mxCell id="ogzNA6DxqtYgM_odpDpJ-8" value="" style="edgeStyle=none;orthogonalLoop=1;jettySize=auto;html=1;rounded=0;entryX=0;entryY=0.21;entryDx=0;entryDy=3;entryPerimeter=0;strokeWidth=3;" parent="1" target="8CFHem_4Svvjd2frR5rD-30" edge="1">
          <mxGeometry width="80" relative="1" as="geometry">
            <mxPoint x="-290" y="280" as="sourcePoint" />
            <mxPoint x="80" y="279" as="targetPoint" />
            <Array as="points" />
          </mxGeometry>
        </mxCell>
        <mxCell id="ogzNA6DxqtYgM_odpDpJ-10" value="" style="endArrow=none;html=1;rounded=0;strokeWidth=3;" parent="1" edge="1">
          <mxGeometry width="50" height="50" relative="1" as="geometry">
            <mxPoint x="180" y="360" as="sourcePoint" />
            <mxPoint x="180" y="360" as="targetPoint" />
          </mxGeometry>
        </mxCell>
        <mxCell id="ogzNA6DxqtYgM_odpDpJ-22" value="&lt;font style=&quot;font-size: 45px;&quot;&gt;16_Bit_Signed_Combinational_Multiplier&lt;/font&gt;" style="text;html=1;whiteSpace=wrap;overflow=hidden;rounded=0;" parent="1" vertex="1">
          <mxGeometry x="20" y="90" width="870" height="190" as="geometry" />
        </mxCell>
        <mxCell id="ogzNA6DxqtYgM_odpDpJ-24" value="" style="endArrow=none;html=1;rounded=0;strokeWidth=3;" parent="1" edge="1">
          <mxGeometry width="50" height="50" relative="1" as="geometry">
            <mxPoint x="-260" y="290" as="sourcePoint" />
            <mxPoint x="-240" y="270" as="targetPoint" />
          </mxGeometry>
        </mxCell>
        <mxCell id="ogzNA6DxqtYgM_odpDpJ-26" value="16" style="text;html=1;align=center;verticalAlign=middle;whiteSpace=wrap;rounded=0;strokeWidth=3;" parent="1" vertex="1">
          <mxGeometry x="-290" y="260" width="60" height="20" as="geometry" />
        </mxCell>
        <mxCell id="8CFHem_4Svvjd2frR5rD-3" style="edgeStyle=orthogonalEdgeStyle;rounded=0;orthogonalLoop=1;jettySize=auto;html=1;entryX=0;entryY=0.25;entryDx=0;entryDy=0;entryPerimeter=0;strokeWidth=3;" parent="1" target="8CFHem_4Svvjd2frR5rD-2" edge="1">
          <mxGeometry relative="1" as="geometry">
            <mxPoint x="90" y="1219" as="sourcePoint" />
          </mxGeometry>
        </mxCell>
        <mxCell id="8CFHem_4Svvjd2frR5rD-4" style="edgeStyle=orthogonalEdgeStyle;rounded=0;orthogonalLoop=1;jettySize=auto;html=1;entryX=0;entryY=0.75;entryDx=0;entryDy=0;entryPerimeter=0;strokeWidth=3;" parent="1" target="8CFHem_4Svvjd2frR5rD-2" edge="1">
          <mxGeometry relative="1" as="geometry">
            <mxPoint x="60" y="1259" as="sourcePoint" />
          </mxGeometry>
        </mxCell>
        <mxCell id="8CFHem_4Svvjd2frR5rD-7" style="edgeStyle=orthogonalEdgeStyle;rounded=0;orthogonalLoop=1;jettySize=auto;html=1;exitX=1;exitY=0.5;exitDx=0;exitDy=0;exitPerimeter=0;strokeWidth=3;" parent="1" source="8CFHem_4Svvjd2frR5rD-2" edge="1">
          <mxGeometry relative="1" as="geometry">
            <mxPoint x="259.9999999999998" y="1239.4705882352941" as="targetPoint" />
          </mxGeometry>
        </mxCell>
        <mxCell id="8CFHem_4Svvjd2frR5rD-2" value="" style="shape=or;whiteSpace=wrap;html=1;strokeWidth=3;" parent="1" vertex="1">
          <mxGeometry x="140" y="1199" width="60" height="80" as="geometry" />
        </mxCell>
        <mxCell id="8CFHem_4Svvjd2frR5rD-5" value="" style="endArrow=classic;html=1;rounded=0;strokeWidth=3;" parent="1" edge="1">
          <mxGeometry width="50" height="50" relative="1" as="geometry">
            <mxPoint x="60" y="1169" as="sourcePoint" />
            <mxPoint x="60" y="1889" as="targetPoint" />
          </mxGeometry>
        </mxCell>
        <mxCell id="8CFHem_4Svvjd2frR5rD-8" style="edgeStyle=orthogonalEdgeStyle;rounded=0;orthogonalLoop=1;jettySize=auto;html=1;entryX=0;entryY=0.25;entryDx=0;entryDy=0;entryPerimeter=0;strokeWidth=3;" parent="1" target="8CFHem_4Svvjd2frR5rD-11" edge="1">
          <mxGeometry relative="1" as="geometry">
            <mxPoint x="90" y="1423" as="sourcePoint" />
          </mxGeometry>
        </mxCell>
        <mxCell id="8CFHem_4Svvjd2frR5rD-9" style="edgeStyle=orthogonalEdgeStyle;rounded=0;orthogonalLoop=1;jettySize=auto;html=1;entryX=0;entryY=0.75;entryDx=0;entryDy=0;entryPerimeter=0;strokeWidth=3;" parent="1" target="8CFHem_4Svvjd2frR5rD-11" edge="1">
          <mxGeometry relative="1" as="geometry">
            <mxPoint x="60" y="1463" as="sourcePoint" />
          </mxGeometry>
        </mxCell>
        <mxCell id="8CFHem_4Svvjd2frR5rD-10" style="edgeStyle=orthogonalEdgeStyle;rounded=0;orthogonalLoop=1;jettySize=auto;html=1;exitX=1;exitY=0.5;exitDx=0;exitDy=0;exitPerimeter=0;strokeWidth=3;entryX=0;entryY=0.25;entryDx=0;entryDy=0;" parent="1" source="8CFHem_4Svvjd2frR5rD-11" edge="1" target="QExua1J9MdYWWvg31LNP-27">
          <mxGeometry relative="1" as="geometry">
            <mxPoint x="270" y="1444" as="targetPoint" />
            <Array as="points">
              <mxPoint x="490" y="1443" />
            </Array>
          </mxGeometry>
        </mxCell>
        <mxCell id="8CFHem_4Svvjd2frR5rD-11" value="" style="shape=or;whiteSpace=wrap;html=1;strokeWidth=3;" parent="1" vertex="1">
          <mxGeometry x="140" y="1403" width="60" height="80" as="geometry" />
        </mxCell>
        <mxCell id="8CFHem_4Svvjd2frR5rD-20" style="edgeStyle=orthogonalEdgeStyle;rounded=0;orthogonalLoop=1;jettySize=auto;html=1;entryX=0;entryY=0.25;entryDx=0;entryDy=0;entryPerimeter=0;strokeWidth=3;" parent="1" target="8CFHem_4Svvjd2frR5rD-23" edge="1">
          <mxGeometry relative="1" as="geometry">
            <mxPoint x="90" y="1579" as="sourcePoint" />
          </mxGeometry>
        </mxCell>
        <mxCell id="8CFHem_4Svvjd2frR5rD-21" style="edgeStyle=orthogonalEdgeStyle;rounded=0;orthogonalLoop=1;jettySize=auto;html=1;entryX=0;entryY=0.75;entryDx=0;entryDy=0;entryPerimeter=0;strokeWidth=3;" parent="1" target="8CFHem_4Svvjd2frR5rD-23" edge="1">
          <mxGeometry relative="1" as="geometry">
            <mxPoint x="60" y="1619" as="sourcePoint" />
          </mxGeometry>
        </mxCell>
        <mxCell id="8CFHem_4Svvjd2frR5rD-22" style="edgeStyle=orthogonalEdgeStyle;rounded=0;orthogonalLoop=1;jettySize=auto;html=1;exitX=1;exitY=0.5;exitDx=0;exitDy=0;exitPerimeter=0;strokeWidth=3;entryX=-0.023;entryY=0.115;entryDx=0;entryDy=0;entryPerimeter=0;" parent="1" source="8CFHem_4Svvjd2frR5rD-23" edge="1" target="QExua1J9MdYWWvg31LNP-117">
          <mxGeometry relative="1" as="geometry">
            <mxPoint x="259.9999999999998" y="1599.4705882352941" as="targetPoint" />
            <Array as="points">
              <mxPoint x="498" y="1599" />
            </Array>
          </mxGeometry>
        </mxCell>
        <mxCell id="8CFHem_4Svvjd2frR5rD-23" value="" style="shape=or;whiteSpace=wrap;html=1;strokeWidth=3;" parent="1" vertex="1">
          <mxGeometry x="140" y="1559" width="60" height="80" as="geometry" />
        </mxCell>
        <mxCell id="8CFHem_4Svvjd2frR5rD-24" style="edgeStyle=orthogonalEdgeStyle;rounded=0;orthogonalLoop=1;jettySize=auto;html=1;entryX=0;entryY=0.25;entryDx=0;entryDy=0;entryPerimeter=0;strokeWidth=3;" parent="1" target="8CFHem_4Svvjd2frR5rD-27" edge="1">
          <mxGeometry relative="1" as="geometry">
            <mxPoint x="90" y="1769" as="sourcePoint" />
          </mxGeometry>
        </mxCell>
        <mxCell id="8CFHem_4Svvjd2frR5rD-25" style="edgeStyle=orthogonalEdgeStyle;rounded=0;orthogonalLoop=1;jettySize=auto;html=1;entryX=0;entryY=0.75;entryDx=0;entryDy=0;entryPerimeter=0;strokeWidth=3;" parent="1" target="8CFHem_4Svvjd2frR5rD-27" edge="1">
          <mxGeometry relative="1" as="geometry">
            <mxPoint x="60" y="1809" as="sourcePoint" />
          </mxGeometry>
        </mxCell>
        <mxCell id="8CFHem_4Svvjd2frR5rD-26" style="edgeStyle=orthogonalEdgeStyle;rounded=0;orthogonalLoop=1;jettySize=auto;html=1;exitX=1;exitY=0.5;exitDx=0;exitDy=0;exitPerimeter=0;strokeWidth=3;entryX=0.01;entryY=0.182;entryDx=0;entryDy=0;entryPerimeter=0;" parent="1" source="8CFHem_4Svvjd2frR5rD-27" edge="1" target="QExua1J9MdYWWvg31LNP-118">
          <mxGeometry relative="1" as="geometry">
            <mxPoint x="259.9999999999998" y="1789.4705882352941" as="targetPoint" />
          </mxGeometry>
        </mxCell>
        <mxCell id="8CFHem_4Svvjd2frR5rD-27" value="" style="shape=or;whiteSpace=wrap;html=1;strokeWidth=3;" parent="1" vertex="1">
          <mxGeometry x="140" y="1749" width="60" height="80" as="geometry" />
        </mxCell>
        <mxCell id="8CFHem_4Svvjd2frR5rD-28" value="A[15] == 1" style="ellipse;whiteSpace=wrap;html=1;aspect=fixed;strokeWidth=3;" parent="1" vertex="1">
          <mxGeometry x="-170" y="375" width="60" height="60" as="geometry" />
        </mxCell>
        <mxCell id="8CFHem_4Svvjd2frR5rD-30" value="Mux" style="shadow=0;dashed=0;align=center;html=1;strokeWidth=3;shape=mxgraph.electrical.abstract.mux2;whiteSpace=wrap;" parent="1" vertex="1">
          <mxGeometry x="80" y="255" width="60" height="100" as="geometry" />
        </mxCell>
        <mxCell id="8CFHem_4Svvjd2frR5rD-32" value="A" style="text;html=1;align=center;verticalAlign=middle;whiteSpace=wrap;rounded=0;strokeWidth=2;" parent="1" vertex="1">
          <mxGeometry x="-330" y="270" width="60" height="20" as="geometry" />
        </mxCell>
        <mxCell id="8CFHem_4Svvjd2frR5rD-56" style="edgeStyle=orthogonalEdgeStyle;rounded=0;orthogonalLoop=1;jettySize=auto;html=1;exitX=1;exitY=0.5;exitDx=0;exitDy=0;entryX=0;entryY=0.25;entryDx=0;entryDy=0;strokeWidth=3;" parent="1" source="8CFHem_4Svvjd2frR5rD-52" target="8CFHem_4Svvjd2frR5rD-37" edge="1">
          <mxGeometry relative="1" as="geometry" />
        </mxCell>
        <mxCell id="8CFHem_4Svvjd2frR5rD-37" value="16_Bit&amp;nbsp;&lt;br&gt;Adder" style="whiteSpace=wrap;html=1;aspect=fixed;strokeWidth=3;" parent="1" vertex="1">
          <mxGeometry x="-60" y="345" width="90" height="90" as="geometry" />
        </mxCell>
        <mxCell id="8CFHem_4Svvjd2frR5rD-38" style="edgeStyle=orthogonalEdgeStyle;rounded=0;orthogonalLoop=1;jettySize=auto;html=1;entryX=0;entryY=0.63;entryDx=0;entryDy=3;entryPerimeter=0;strokeWidth=3;" parent="1" source="8CFHem_4Svvjd2frR5rD-37" target="8CFHem_4Svvjd2frR5rD-30" edge="1">
          <mxGeometry relative="1" as="geometry" />
        </mxCell>
        <mxCell id="8CFHem_4Svvjd2frR5rD-46" value="" style="edgeStyle=none;orthogonalLoop=1;jettySize=auto;html=1;rounded=0;entryX=0;entryY=0.5;entryDx=0;entryDy=0;strokeWidth=3;" parent="1" target="8CFHem_4Svvjd2frR5rD-28" edge="1">
          <mxGeometry width="80" relative="1" as="geometry">
            <mxPoint x="-230" y="280" as="sourcePoint" />
            <mxPoint x="-180" y="360" as="targetPoint" />
            <Array as="points">
              <mxPoint x="-230" y="405" />
            </Array>
          </mxGeometry>
        </mxCell>
        <mxCell id="8CFHem_4Svvjd2frR5rD-47" style="edgeStyle=orthogonalEdgeStyle;rounded=0;orthogonalLoop=1;jettySize=auto;html=1;exitX=1;exitY=0.5;exitDx=0;exitDy=0;entryX=-0.011;entryY=0.667;entryDx=0;entryDy=0;entryPerimeter=0;strokeWidth=3;" parent="1" source="8CFHem_4Svvjd2frR5rD-28" target="8CFHem_4Svvjd2frR5rD-37" edge="1">
          <mxGeometry relative="1" as="geometry" />
        </mxCell>
        <mxCell id="8CFHem_4Svvjd2frR5rD-48" value="" style="edgeStyle=none;orthogonalLoop=1;jettySize=auto;html=1;rounded=0;entryX=0;entryY=0.5;entryDx=0;entryDy=0;strokeWidth=3;" parent="1" target="8CFHem_4Svvjd2frR5rD-49" edge="1">
          <mxGeometry width="80" relative="1" as="geometry">
            <mxPoint x="-190" y="280" as="sourcePoint" />
            <mxPoint x="-190" y="340" as="targetPoint" />
            <Array as="points">
              <mxPoint x="-190" y="333" />
            </Array>
          </mxGeometry>
        </mxCell>
        <mxCell id="8CFHem_4Svvjd2frR5rD-49" value="" style="triangle;whiteSpace=wrap;html=1;strokeWidth=3;" parent="1" vertex="1">
          <mxGeometry x="-160" y="305" width="40" height="55" as="geometry" />
        </mxCell>
        <mxCell id="8CFHem_4Svvjd2frR5rD-52" value="" style="ellipse;whiteSpace=wrap;html=1;aspect=fixed;strokeWidth=3;" parent="1" vertex="1">
          <mxGeometry x="-120" y="325" width="15" height="15" as="geometry" />
        </mxCell>
        <mxCell id="8CFHem_4Svvjd2frR5rD-57" value="" style="edgeStyle=none;orthogonalLoop=1;jettySize=auto;html=1;rounded=0;entryX=0.5;entryY=1;entryDx=0;entryDy=0;strokeWidth=3;" parent="1" target="8CFHem_4Svvjd2frR5rD-37" edge="1">
          <mxGeometry width="80" relative="1" as="geometry">
            <mxPoint x="-15" y="490" as="sourcePoint" />
            <mxPoint x="40" y="490" as="targetPoint" />
            <Array as="points" />
          </mxGeometry>
        </mxCell>
        <mxCell id="8CFHem_4Svvjd2frR5rD-61" style="edgeStyle=orthogonalEdgeStyle;rounded=0;orthogonalLoop=1;jettySize=auto;html=1;exitX=1;exitY=0.5;exitDx=0;exitDy=-5;exitPerimeter=0;strokeWidth=2;" parent="1" source="8CFHem_4Svvjd2frR5rD-30" edge="1">
          <mxGeometry relative="1" as="geometry">
            <mxPoint x="200" y="300" as="targetPoint" />
          </mxGeometry>
        </mxCell>
        <mxCell id="8CFHem_4Svvjd2frR5rD-62" value="" style="edgeStyle=none;orthogonalLoop=1;jettySize=auto;html=1;rounded=0;entryX=0;entryY=0.21;entryDx=0;entryDy=3;entryPerimeter=0;strokeWidth=3;" parent="1" target="8CFHem_4Svvjd2frR5rD-67" edge="1">
          <mxGeometry width="80" relative="1" as="geometry">
            <mxPoint x="-290" y="525" as="sourcePoint" />
            <mxPoint x="80" y="524" as="targetPoint" />
            <Array as="points" />
          </mxGeometry>
        </mxCell>
        <mxCell id="8CFHem_4Svvjd2frR5rD-63" value="" style="endArrow=none;html=1;rounded=0;strokeWidth=3;" parent="1" edge="1">
          <mxGeometry width="50" height="50" relative="1" as="geometry">
            <mxPoint x="180" y="605" as="sourcePoint" />
            <mxPoint x="180" y="605" as="targetPoint" />
          </mxGeometry>
        </mxCell>
        <mxCell id="8CFHem_4Svvjd2frR5rD-64" value="" style="endArrow=none;html=1;rounded=0;strokeWidth=3;" parent="1" edge="1">
          <mxGeometry width="50" height="50" relative="1" as="geometry">
            <mxPoint x="-260" y="535" as="sourcePoint" />
            <mxPoint x="-240" y="515" as="targetPoint" />
          </mxGeometry>
        </mxCell>
        <mxCell id="8CFHem_4Svvjd2frR5rD-65" value="16" style="text;html=1;align=center;verticalAlign=middle;whiteSpace=wrap;rounded=0;strokeWidth=3;" parent="1" vertex="1">
          <mxGeometry x="-290" y="505" width="60" height="20" as="geometry" />
        </mxCell>
        <mxCell id="8CFHem_4Svvjd2frR5rD-66" value="B[15] == 1" style="ellipse;whiteSpace=wrap;html=1;aspect=fixed;strokeWidth=3;" parent="1" vertex="1">
          <mxGeometry x="-170" y="620" width="60" height="60" as="geometry" />
        </mxCell>
        <mxCell id="8CFHem_4Svvjd2frR5rD-67" value="Mux" style="shadow=0;dashed=0;align=center;html=1;strokeWidth=3;shape=mxgraph.electrical.abstract.mux2;whiteSpace=wrap;" parent="1" vertex="1">
          <mxGeometry x="80" y="500" width="60" height="100" as="geometry" />
        </mxCell>
        <mxCell id="8CFHem_4Svvjd2frR5rD-69" style="edgeStyle=orthogonalEdgeStyle;rounded=0;orthogonalLoop=1;jettySize=auto;html=1;exitX=1;exitY=0.5;exitDx=0;exitDy=0;entryX=0;entryY=0.25;entryDx=0;entryDy=0;strokeWidth=3;" parent="1" source="8CFHem_4Svvjd2frR5rD-76" target="8CFHem_4Svvjd2frR5rD-70" edge="1">
          <mxGeometry relative="1" as="geometry" />
        </mxCell>
        <mxCell id="8CFHem_4Svvjd2frR5rD-70" value="16_Bit&amp;nbsp;&lt;br&gt;Adder" style="whiteSpace=wrap;html=1;aspect=fixed;strokeWidth=3;" parent="1" vertex="1">
          <mxGeometry x="-60" y="590" width="90" height="90" as="geometry" />
        </mxCell>
        <mxCell id="8CFHem_4Svvjd2frR5rD-71" style="edgeStyle=orthogonalEdgeStyle;rounded=0;orthogonalLoop=1;jettySize=auto;html=1;entryX=0;entryY=0.63;entryDx=0;entryDy=3;entryPerimeter=0;strokeWidth=3;" parent="1" source="8CFHem_4Svvjd2frR5rD-70" target="8CFHem_4Svvjd2frR5rD-67" edge="1">
          <mxGeometry relative="1" as="geometry" />
        </mxCell>
        <mxCell id="8CFHem_4Svvjd2frR5rD-72" value="" style="edgeStyle=none;orthogonalLoop=1;jettySize=auto;html=1;rounded=0;entryX=0;entryY=0.5;entryDx=0;entryDy=0;strokeWidth=3;" parent="1" target="8CFHem_4Svvjd2frR5rD-66" edge="1">
          <mxGeometry width="80" relative="1" as="geometry">
            <mxPoint x="-230" y="525" as="sourcePoint" />
            <mxPoint x="-180" y="605" as="targetPoint" />
            <Array as="points">
              <mxPoint x="-230" y="650" />
            </Array>
          </mxGeometry>
        </mxCell>
        <mxCell id="8CFHem_4Svvjd2frR5rD-73" style="edgeStyle=orthogonalEdgeStyle;rounded=0;orthogonalLoop=1;jettySize=auto;html=1;exitX=1;exitY=0.5;exitDx=0;exitDy=0;entryX=-0.011;entryY=0.667;entryDx=0;entryDy=0;entryPerimeter=0;strokeWidth=3;" parent="1" source="8CFHem_4Svvjd2frR5rD-66" target="8CFHem_4Svvjd2frR5rD-70" edge="1">
          <mxGeometry relative="1" as="geometry" />
        </mxCell>
        <mxCell id="8CFHem_4Svvjd2frR5rD-74" value="" style="edgeStyle=none;orthogonalLoop=1;jettySize=auto;html=1;rounded=0;entryX=0;entryY=0.5;entryDx=0;entryDy=0;strokeWidth=3;" parent="1" target="8CFHem_4Svvjd2frR5rD-75" edge="1">
          <mxGeometry width="80" relative="1" as="geometry">
            <mxPoint x="-190" y="525" as="sourcePoint" />
            <mxPoint x="-190" y="585" as="targetPoint" />
            <Array as="points">
              <mxPoint x="-190" y="578" />
            </Array>
          </mxGeometry>
        </mxCell>
        <mxCell id="8CFHem_4Svvjd2frR5rD-75" value="" style="triangle;whiteSpace=wrap;html=1;strokeWidth=3;" parent="1" vertex="1">
          <mxGeometry x="-160" y="550" width="40" height="55" as="geometry" />
        </mxCell>
        <mxCell id="8CFHem_4Svvjd2frR5rD-76" value="" style="ellipse;whiteSpace=wrap;html=1;aspect=fixed;strokeWidth=3;" parent="1" vertex="1">
          <mxGeometry x="-120" y="570" width="15" height="15" as="geometry" />
        </mxCell>
        <mxCell id="8CFHem_4Svvjd2frR5rD-77" value="" style="edgeStyle=none;orthogonalLoop=1;jettySize=auto;html=1;rounded=0;entryX=0.5;entryY=1;entryDx=0;entryDy=0;strokeWidth=3;" parent="1" target="8CFHem_4Svvjd2frR5rD-70" edge="1">
          <mxGeometry width="80" relative="1" as="geometry">
            <mxPoint x="-15" y="735" as="sourcePoint" />
            <mxPoint x="40" y="735" as="targetPoint" />
            <Array as="points" />
          </mxGeometry>
        </mxCell>
        <mxCell id="8CFHem_4Svvjd2frR5rD-78" style="edgeStyle=orthogonalEdgeStyle;rounded=0;orthogonalLoop=1;jettySize=auto;html=1;exitX=1;exitY=0.5;exitDx=0;exitDy=-5;exitPerimeter=0;strokeWidth=2;" parent="1" source="8CFHem_4Svvjd2frR5rD-67" edge="1">
          <mxGeometry relative="1" as="geometry">
            <mxPoint x="200" y="545" as="targetPoint" />
          </mxGeometry>
        </mxCell>
        <mxCell id="8CFHem_4Svvjd2frR5rD-79" value="" style="edgeStyle=none;orthogonalLoop=1;jettySize=auto;html=1;rounded=0;exitX=0;exitY=0.75;exitDx=0;exitDy=0;entryX=0;entryY=0.23333333333333334;entryDx=0;entryDy=3;entryPerimeter=0;strokeWidth=3;" parent="1" target="8CFHem_4Svvjd2frR5rD-97" edge="1">
          <mxGeometry width="80" relative="1" as="geometry">
            <mxPoint x="620" y="440" as="sourcePoint" />
            <mxPoint x="1130" y="440" as="targetPoint" />
            <Array as="points" />
          </mxGeometry>
        </mxCell>
        <mxCell id="8CFHem_4Svvjd2frR5rD-80" value="" style="endArrow=none;html=1;rounded=0;strokeWidth=3;" parent="1" edge="1">
          <mxGeometry width="50" height="50" relative="1" as="geometry">
            <mxPoint x="1120" y="710" as="sourcePoint" />
            <mxPoint x="1120" y="710" as="targetPoint" />
          </mxGeometry>
        </mxCell>
        <mxCell id="8CFHem_4Svvjd2frR5rD-81" value="" style="endArrow=none;html=1;rounded=0;strokeWidth=3;" parent="1" edge="1">
          <mxGeometry width="50" height="50" relative="1" as="geometry">
            <mxPoint x="650" y="450" as="sourcePoint" />
            <mxPoint x="670" y="430" as="targetPoint" />
          </mxGeometry>
        </mxCell>
        <mxCell id="8CFHem_4Svvjd2frR5rD-85" value="A" style="text;html=1;align=center;verticalAlign=middle;whiteSpace=wrap;rounded=0;strokeWidth=3;" parent="1" vertex="1">
          <mxGeometry x="610" y="620" width="60" height="20" as="geometry" />
        </mxCell>
        <mxCell id="8CFHem_4Svvjd2frR5rD-86" style="edgeStyle=orthogonalEdgeStyle;rounded=0;orthogonalLoop=1;jettySize=auto;html=1;exitX=1;exitY=0.5;exitDx=0;exitDy=0;entryX=0;entryY=0.25;entryDx=0;entryDy=0;strokeWidth=3;" parent="1" source="8CFHem_4Svvjd2frR5rD-93" target="8CFHem_4Svvjd2frR5rD-87" edge="1">
          <mxGeometry relative="1" as="geometry" />
        </mxCell>
        <mxCell id="8CFHem_4Svvjd2frR5rD-87" value="&lt;font style=&quot;font-size: 30px;&quot;&gt;32_Bit&lt;/font&gt;&lt;div style=&quot;font-size: 30px;&quot;&gt;&lt;font style=&quot;font-size: 30px;&quot;&gt;Adder&lt;/font&gt;&lt;/div&gt;" style="whiteSpace=wrap;html=1;aspect=fixed;strokeWidth=3;" parent="1" vertex="1">
          <mxGeometry x="900" y="510" width="130" height="130" as="geometry" />
        </mxCell>
        <mxCell id="8CFHem_4Svvjd2frR5rD-88" style="edgeStyle=orthogonalEdgeStyle;rounded=0;orthogonalLoop=1;jettySize=auto;html=1;entryX=0;entryY=0.7;entryDx=0;entryDy=3;entryPerimeter=0;strokeWidth=3;" parent="1" source="8CFHem_4Svvjd2frR5rD-87" target="8CFHem_4Svvjd2frR5rD-97" edge="1">
          <mxGeometry relative="1" as="geometry">
            <mxPoint x="1130" y="520" as="targetPoint" />
          </mxGeometry>
        </mxCell>
        <mxCell id="8CFHem_4Svvjd2frR5rD-91" value="" style="edgeStyle=none;orthogonalLoop=1;jettySize=auto;html=1;rounded=0;entryX=0;entryY=0.5;entryDx=0;entryDy=0;strokeWidth=3;" parent="1" target="8CFHem_4Svvjd2frR5rD-92" edge="1">
          <mxGeometry width="80" relative="1" as="geometry">
            <mxPoint x="710" y="440" as="sourcePoint" />
            <mxPoint x="710" y="550" as="targetPoint" />
            <Array as="points">
              <mxPoint x="710" y="543" />
            </Array>
          </mxGeometry>
        </mxCell>
        <mxCell id="8CFHem_4Svvjd2frR5rD-92" value="" style="triangle;whiteSpace=wrap;html=1;strokeWidth=3;" parent="1" vertex="1">
          <mxGeometry x="740" y="515" width="40" height="55" as="geometry" />
        </mxCell>
        <mxCell id="8CFHem_4Svvjd2frR5rD-93" value="" style="ellipse;whiteSpace=wrap;html=1;aspect=fixed;strokeWidth=3;" parent="1" vertex="1">
          <mxGeometry x="780" y="535" width="15" height="15" as="geometry" />
        </mxCell>
        <mxCell id="8CFHem_4Svvjd2frR5rD-96" value="" style="edgeStyle=none;orthogonalLoop=1;jettySize=auto;html=1;rounded=0;strokeWidth=3;" parent="1" edge="1">
          <mxGeometry width="80" relative="1" as="geometry">
            <mxPoint x="790" y="621" as="sourcePoint" />
            <mxPoint x="896" y="621" as="targetPoint" />
            <Array as="points" />
          </mxGeometry>
        </mxCell>
        <mxCell id="8CFHem_4Svvjd2frR5rD-98" style="edgeStyle=orthogonalEdgeStyle;rounded=0;orthogonalLoop=1;jettySize=auto;html=1;exitX=1;exitY=0.5;exitDx=0;exitDy=-5;exitPerimeter=0;strokeWidth=3;" parent="1" source="8CFHem_4Svvjd2frR5rD-97" edge="1">
          <mxGeometry relative="1" as="geometry">
            <mxPoint x="1420" y="495" as="targetPoint" />
          </mxGeometry>
        </mxCell>
        <mxCell id="8CFHem_4Svvjd2frR5rD-97" value="&lt;font style=&quot;font-size: 30px;&quot;&gt;Mux&lt;/font&gt;" style="shadow=0;dashed=0;align=center;html=1;strokeWidth=3;shape=mxgraph.electrical.abstract.mux2;whiteSpace=wrap;" parent="1" vertex="1">
          <mxGeometry x="1140" y="380" width="130" height="240" as="geometry" />
        </mxCell>
        <mxCell id="QExua1J9MdYWWvg31LNP-1" value="" style="edgeStyle=none;orthogonalLoop=1;jettySize=auto;html=1;rounded=0;entryX=0.3333333333333333;entryY=1;entryDx=10;entryDy=0;entryPerimeter=0;strokeWidth=3;" edge="1" parent="1" target="8CFHem_4Svvjd2frR5rD-67">
          <mxGeometry width="80" relative="1" as="geometry">
            <mxPoint x="-230" y="650" as="sourcePoint" />
            <mxPoint x="110" y="720" as="targetPoint" />
            <Array as="points">
              <mxPoint x="-230" y="720" />
              <mxPoint x="-20" y="720" />
              <mxPoint x="110" y="720" />
            </Array>
          </mxGeometry>
        </mxCell>
        <mxCell id="QExua1J9MdYWWvg31LNP-2" value="" style="edgeStyle=none;orthogonalLoop=1;jettySize=auto;html=1;rounded=0;entryX=0.3333333333333333;entryY=1;entryDx=10;entryDy=0;entryPerimeter=0;strokeWidth=3;" edge="1" parent="1" target="8CFHem_4Svvjd2frR5rD-30">
          <mxGeometry width="80" relative="1" as="geometry">
            <mxPoint x="-230" y="400" as="sourcePoint" />
            <mxPoint x="-230" y="470" as="targetPoint" />
            <Array as="points">
              <mxPoint x="-230" y="480" />
              <mxPoint x="110" y="480" />
            </Array>
          </mxGeometry>
        </mxCell>
        <mxCell id="QExua1J9MdYWWvg31LNP-3" value="A[15]" style="text;html=1;align=center;verticalAlign=middle;whiteSpace=wrap;rounded=0;strokeWidth=3;" vertex="1" parent="1">
          <mxGeometry x="-280" y="355" width="60" height="30" as="geometry" />
        </mxCell>
        <mxCell id="QExua1J9MdYWWvg31LNP-5" value="B[15]" style="text;html=1;align=center;verticalAlign=middle;whiteSpace=wrap;rounded=0;strokeWidth=3;" vertex="1" parent="1">
          <mxGeometry x="-280" y="590" width="60" height="30" as="geometry" />
        </mxCell>
        <mxCell id="QExua1J9MdYWWvg31LNP-6" value="B" style="text;html=1;align=center;verticalAlign=middle;whiteSpace=wrap;rounded=0;strokeWidth=2;" vertex="1" parent="1">
          <mxGeometry x="-330" y="510" width="60" height="30" as="geometry" />
        </mxCell>
        <mxCell id="QExua1J9MdYWWvg31LNP-7" value="" style="endArrow=none;html=1;rounded=0;strokeWidth=3;" edge="1" parent="1">
          <mxGeometry width="50" height="50" relative="1" as="geometry">
            <mxPoint x="40" y="620" as="sourcePoint" />
            <mxPoint x="70" y="590" as="targetPoint" />
            <Array as="points" />
          </mxGeometry>
        </mxCell>
        <mxCell id="QExua1J9MdYWWvg31LNP-8" value="16" style="text;html=1;align=center;verticalAlign=middle;whiteSpace=wrap;rounded=0;strokeWidth=3;" vertex="1" parent="1">
          <mxGeometry x="10" y="585" width="70" height="20" as="geometry" />
        </mxCell>
        <mxCell id="QExua1J9MdYWWvg31LNP-11" value="" style="endArrow=none;html=1;rounded=0;strokeWidth=3;" edge="1" parent="1">
          <mxGeometry width="50" height="50" relative="1" as="geometry">
            <mxPoint x="45" y="380" as="sourcePoint" />
            <mxPoint x="65" y="360" as="targetPoint" />
          </mxGeometry>
        </mxCell>
        <mxCell id="QExua1J9MdYWWvg31LNP-12" value="16" style="text;html=1;align=center;verticalAlign=middle;whiteSpace=wrap;rounded=0;strokeWidth=3;" vertex="1" parent="1">
          <mxGeometry x="15" y="350" width="60" height="20" as="geometry" />
        </mxCell>
        <mxCell id="QExua1J9MdYWWvg31LNP-13" value="32" style="text;html=1;align=center;verticalAlign=middle;whiteSpace=wrap;rounded=0;strokeWidth=3;" vertex="1" parent="1">
          <mxGeometry x="620" y="420" width="60" height="20" as="geometry" />
        </mxCell>
        <mxCell id="QExua1J9MdYWWvg31LNP-14" value="&lt;span style=&quot;font-size: 20px;&quot;&gt;1&lt;/span&gt;" style="text;html=1;align=center;verticalAlign=middle;whiteSpace=wrap;rounded=0;strokeWidth=3;" vertex="1" parent="1">
          <mxGeometry x="-50" y="450" width="40" height="30" as="geometry" />
        </mxCell>
        <mxCell id="QExua1J9MdYWWvg31LNP-16" value="&lt;span style=&quot;font-size: 20px;&quot;&gt;1&lt;/span&gt;" style="text;html=1;align=center;verticalAlign=middle;whiteSpace=wrap;rounded=0;strokeWidth=3;" vertex="1" parent="1">
          <mxGeometry x="-50" y="690" width="30" height="30" as="geometry" />
        </mxCell>
        <mxCell id="QExua1J9MdYWWvg31LNP-17" value="&lt;font style=&quot;font-size: 40px;&quot;&gt;1&lt;/font&gt;" style="text;html=1;align=center;verticalAlign=middle;whiteSpace=wrap;rounded=0;" vertex="1" parent="1">
          <mxGeometry x="720" y="605" width="70" height="30" as="geometry" />
        </mxCell>
        <mxCell id="QExua1J9MdYWWvg31LNP-19" value="" style="edgeStyle=none;orthogonalLoop=1;jettySize=auto;html=1;rounded=0;entryX=0;entryY=0.75;entryDx=0;entryDy=0;entryPerimeter=0;strokeWidth=3;" edge="1" parent="1" target="ogzNA6DxqtYgM_odpDpJ-2">
          <mxGeometry width="80" relative="1" as="geometry">
            <mxPoint x="-230" y="720" as="sourcePoint" />
            <mxPoint x="-40" y="960" as="targetPoint" />
            <Array as="points">
              <mxPoint x="-230" y="963" />
            </Array>
          </mxGeometry>
        </mxCell>
        <mxCell id="QExua1J9MdYWWvg31LNP-20" value="" style="edgeStyle=none;orthogonalLoop=1;jettySize=auto;html=1;rounded=0;entryX=0;entryY=0.25;entryDx=0;entryDy=0;entryPerimeter=0;strokeWidth=3;" edge="1" parent="1" target="ogzNA6DxqtYgM_odpDpJ-2">
          <mxGeometry width="80" relative="1" as="geometry">
            <mxPoint x="-210" y="480" as="sourcePoint" />
            <mxPoint x="-200" y="820" as="targetPoint" />
            <Array as="points">
              <mxPoint x="-210" y="868" />
            </Array>
          </mxGeometry>
        </mxCell>
        <mxCell id="QExua1J9MdYWWvg31LNP-21" value="&lt;span style=&quot;font-size: 35px;&quot;&gt;A[15&lt;/span&gt;&lt;span style=&quot;font-size: 35px;&quot;&gt;]&lt;/span&gt;" style="text;html=1;align=center;verticalAlign=middle;whiteSpace=wrap;rounded=0;" vertex="1" parent="1">
          <mxGeometry x="-30" y="800" width="130" height="60" as="geometry" />
        </mxCell>
        <mxCell id="QExua1J9MdYWWvg31LNP-22" value="&lt;span style=&quot;font-size: 35px;&quot;&gt;B[15&lt;/span&gt;&lt;span style=&quot;font-size: 35px;&quot;&gt;]&lt;/span&gt;" style="text;html=1;align=center;verticalAlign=middle;whiteSpace=wrap;rounded=0;" vertex="1" parent="1">
          <mxGeometry x="-30" y="900" width="130" height="60" as="geometry" />
        </mxCell>
        <mxCell id="QExua1J9MdYWWvg31LNP-26" style="edgeStyle=orthogonalEdgeStyle;rounded=0;orthogonalLoop=1;jettySize=auto;html=1;exitX=1;exitY=0.5;exitDx=0;exitDy=0;exitPerimeter=0;entryX=0.5;entryY=0.958;entryDx=0;entryDy=0;entryPerimeter=0;strokeWidth=3;" edge="1" parent="1" source="ogzNA6DxqtYgM_odpDpJ-2" target="8CFHem_4Svvjd2frR5rD-97">
          <mxGeometry relative="1" as="geometry">
            <mxPoint x="1205" y="630" as="targetPoint" />
          </mxGeometry>
        </mxCell>
        <mxCell id="QExua1J9MdYWWvg31LNP-120" style="edgeStyle=orthogonalEdgeStyle;rounded=0;orthogonalLoop=1;jettySize=auto;html=1;exitX=0.5;exitY=1;exitDx=0;exitDy=0;entryX=0.5;entryY=0;entryDx=0;entryDy=0;strokeWidth=3;" edge="1" parent="1" source="QExua1J9MdYWWvg31LNP-27" target="QExua1J9MdYWWvg31LNP-117">
          <mxGeometry relative="1" as="geometry" />
        </mxCell>
        <mxCell id="QExua1J9MdYWWvg31LNP-27" value="&lt;font style=&quot;font-size: 35px;&quot;&gt;HA&lt;/font&gt;" style="whiteSpace=wrap;html=1;aspect=fixed;strokeWidth=3;" vertex="1" parent="1">
          <mxGeometry x="460" y="1421" width="106" height="106" as="geometry" />
        </mxCell>
        <mxCell id="QExua1J9MdYWWvg31LNP-37" style="edgeStyle=orthogonalEdgeStyle;rounded=0;orthogonalLoop=1;jettySize=auto;html=1;entryX=0;entryY=0.25;entryDx=0;entryDy=0;entryPerimeter=0;strokeWidth=3;" edge="1" parent="1" target="QExua1J9MdYWWvg31LNP-40">
          <mxGeometry relative="1" as="geometry">
            <mxPoint x="290" y="1490" as="sourcePoint" />
          </mxGeometry>
        </mxCell>
        <mxCell id="QExua1J9MdYWWvg31LNP-38" style="edgeStyle=orthogonalEdgeStyle;rounded=0;orthogonalLoop=1;jettySize=auto;html=1;entryX=0;entryY=0.75;entryDx=0;entryDy=0;entryPerimeter=0;strokeWidth=3;" edge="1" parent="1" target="QExua1J9MdYWWvg31LNP-40">
          <mxGeometry relative="1" as="geometry">
            <mxPoint x="260" y="1530" as="sourcePoint" />
          </mxGeometry>
        </mxCell>
        <mxCell id="QExua1J9MdYWWvg31LNP-39" style="edgeStyle=orthogonalEdgeStyle;rounded=0;orthogonalLoop=1;jettySize=auto;html=1;exitX=1;exitY=0.5;exitDx=0;exitDy=0;exitPerimeter=0;strokeWidth=3;" edge="1" parent="1" source="QExua1J9MdYWWvg31LNP-40">
          <mxGeometry relative="1" as="geometry">
            <mxPoint x="460" y="1510" as="targetPoint" />
          </mxGeometry>
        </mxCell>
        <mxCell id="QExua1J9MdYWWvg31LNP-40" value="" style="shape=or;whiteSpace=wrap;html=1;strokeWidth=3;" vertex="1" parent="1">
          <mxGeometry x="340" y="1470" width="60" height="80" as="geometry" />
        </mxCell>
        <mxCell id="QExua1J9MdYWWvg31LNP-41" value="" style="endArrow=classic;html=1;rounded=0;strokeWidth=3;" edge="1" parent="1">
          <mxGeometry width="50" height="50" relative="1" as="geometry">
            <mxPoint x="260" y="1400" as="sourcePoint" />
            <mxPoint x="260" y="2160" as="targetPoint" />
          </mxGeometry>
        </mxCell>
        <mxCell id="QExua1J9MdYWWvg31LNP-42" style="edgeStyle=orthogonalEdgeStyle;rounded=0;orthogonalLoop=1;jettySize=auto;html=1;entryX=0;entryY=0.25;entryDx=0;entryDy=0;entryPerimeter=0;strokeWidth=3;" edge="1" parent="1" target="QExua1J9MdYWWvg31LNP-45">
          <mxGeometry relative="1" as="geometry">
            <mxPoint x="290" y="1660" as="sourcePoint" />
          </mxGeometry>
        </mxCell>
        <mxCell id="QExua1J9MdYWWvg31LNP-43" style="edgeStyle=orthogonalEdgeStyle;rounded=0;orthogonalLoop=1;jettySize=auto;html=1;entryX=0;entryY=0.75;entryDx=0;entryDy=0;entryPerimeter=0;strokeWidth=3;" edge="1" parent="1" target="QExua1J9MdYWWvg31LNP-45">
          <mxGeometry relative="1" as="geometry">
            <mxPoint x="260" y="1700" as="sourcePoint" />
          </mxGeometry>
        </mxCell>
        <mxCell id="QExua1J9MdYWWvg31LNP-44" style="edgeStyle=orthogonalEdgeStyle;rounded=0;orthogonalLoop=1;jettySize=auto;html=1;exitX=1;exitY=0.5;exitDx=0;exitDy=0;exitPerimeter=0;strokeWidth=3;entryX=0.021;entryY=0.881;entryDx=0;entryDy=0;entryPerimeter=0;" edge="1" parent="1" source="QExua1J9MdYWWvg31LNP-45" target="QExua1J9MdYWWvg31LNP-117">
          <mxGeometry relative="1" as="geometry">
            <mxPoint x="470" y="1670" as="targetPoint" />
            <Array as="points">
              <mxPoint x="502" y="1680" />
            </Array>
          </mxGeometry>
        </mxCell>
        <mxCell id="QExua1J9MdYWWvg31LNP-45" value="" style="shape=or;whiteSpace=wrap;html=1;strokeWidth=3;" vertex="1" parent="1">
          <mxGeometry x="340" y="1640" width="60" height="80" as="geometry" />
        </mxCell>
        <mxCell id="QExua1J9MdYWWvg31LNP-46" style="edgeStyle=orthogonalEdgeStyle;rounded=0;orthogonalLoop=1;jettySize=auto;html=1;entryX=0;entryY=0.25;entryDx=0;entryDy=0;entryPerimeter=0;strokeWidth=3;" edge="1" parent="1" target="QExua1J9MdYWWvg31LNP-49">
          <mxGeometry relative="1" as="geometry">
            <mxPoint x="290" y="1850" as="sourcePoint" />
          </mxGeometry>
        </mxCell>
        <mxCell id="QExua1J9MdYWWvg31LNP-47" style="edgeStyle=orthogonalEdgeStyle;rounded=0;orthogonalLoop=1;jettySize=auto;html=1;entryX=0;entryY=0.75;entryDx=0;entryDy=0;entryPerimeter=0;strokeWidth=3;" edge="1" parent="1" target="QExua1J9MdYWWvg31LNP-49">
          <mxGeometry relative="1" as="geometry">
            <mxPoint x="260" y="1890" as="sourcePoint" />
          </mxGeometry>
        </mxCell>
        <mxCell id="QExua1J9MdYWWvg31LNP-48" style="edgeStyle=orthogonalEdgeStyle;rounded=0;orthogonalLoop=1;jettySize=auto;html=1;exitX=1;exitY=0.5;exitDx=0;exitDy=0;exitPerimeter=0;strokeWidth=3;entryX=0;entryY=0.75;entryDx=0;entryDy=0;" edge="1" parent="1" source="QExua1J9MdYWWvg31LNP-49" target="QExua1J9MdYWWvg31LNP-118">
          <mxGeometry relative="1" as="geometry">
            <mxPoint x="459.9999999999998" y="1770.4705882352941" as="targetPoint" />
            <Array as="points">
              <mxPoint x="460" y="1870" />
            </Array>
          </mxGeometry>
        </mxCell>
        <mxCell id="QExua1J9MdYWWvg31LNP-49" value="" style="shape=or;whiteSpace=wrap;html=1;strokeWidth=3;" vertex="1" parent="1">
          <mxGeometry x="340" y="1830" width="60" height="80" as="geometry" />
        </mxCell>
        <mxCell id="QExua1J9MdYWWvg31LNP-50" style="edgeStyle=orthogonalEdgeStyle;rounded=0;orthogonalLoop=1;jettySize=auto;html=1;entryX=0;entryY=0.25;entryDx=0;entryDy=0;entryPerimeter=0;strokeWidth=3;" edge="1" parent="1" target="QExua1J9MdYWWvg31LNP-53">
          <mxGeometry relative="1" as="geometry">
            <mxPoint x="290" y="2040" as="sourcePoint" />
          </mxGeometry>
        </mxCell>
        <mxCell id="QExua1J9MdYWWvg31LNP-51" style="edgeStyle=orthogonalEdgeStyle;rounded=0;orthogonalLoop=1;jettySize=auto;html=1;entryX=0;entryY=0.75;entryDx=0;entryDy=0;entryPerimeter=0;strokeWidth=3;" edge="1" parent="1" target="QExua1J9MdYWWvg31LNP-53">
          <mxGeometry relative="1" as="geometry">
            <mxPoint x="260" y="2080" as="sourcePoint" />
          </mxGeometry>
        </mxCell>
        <mxCell id="QExua1J9MdYWWvg31LNP-52" style="edgeStyle=orthogonalEdgeStyle;rounded=0;orthogonalLoop=1;jettySize=auto;html=1;exitX=1;exitY=0.5;exitDx=0;exitDy=0;exitPerimeter=0;strokeWidth=3;entryX=0;entryY=0.75;entryDx=0;entryDy=0;" edge="1" parent="1" source="QExua1J9MdYWWvg31LNP-53" target="QExua1J9MdYWWvg31LNP-119">
          <mxGeometry relative="1" as="geometry">
            <mxPoint x="460" y="2060" as="targetPoint" />
          </mxGeometry>
        </mxCell>
        <mxCell id="QExua1J9MdYWWvg31LNP-53" value="" style="shape=or;whiteSpace=wrap;html=1;strokeWidth=3;" vertex="1" parent="1">
          <mxGeometry x="340" y="2020" width="60" height="80" as="geometry" />
        </mxCell>
        <mxCell id="QExua1J9MdYWWvg31LNP-121" style="edgeStyle=orthogonalEdgeStyle;rounded=0;orthogonalLoop=1;jettySize=auto;html=1;exitX=0.5;exitY=1;exitDx=0;exitDy=0;entryX=0.5;entryY=0;entryDx=0;entryDy=0;strokeWidth=3;" edge="1" parent="1" source="QExua1J9MdYWWvg31LNP-117" target="QExua1J9MdYWWvg31LNP-118">
          <mxGeometry relative="1" as="geometry" />
        </mxCell>
        <mxCell id="QExua1J9MdYWWvg31LNP-147" style="edgeStyle=orthogonalEdgeStyle;rounded=0;orthogonalLoop=1;jettySize=auto;html=1;exitX=1;exitY=0.5;exitDx=0;exitDy=0;entryX=0;entryY=0.25;entryDx=0;entryDy=0;strokeWidth=3;" edge="1" parent="1" source="QExua1J9MdYWWvg31LNP-117" target="QExua1J9MdYWWvg31LNP-124">
          <mxGeometry relative="1" as="geometry">
            <Array as="points">
              <mxPoint x="810" y="1643" />
            </Array>
          </mxGeometry>
        </mxCell>
        <mxCell id="QExua1J9MdYWWvg31LNP-117" value="&lt;font style=&quot;font-size: 35px;&quot;&gt;FA&lt;/font&gt;" style="whiteSpace=wrap;html=1;aspect=fixed;strokeWidth=3;" vertex="1" parent="1">
          <mxGeometry x="460" y="1590" width="106" height="106" as="geometry" />
        </mxCell>
        <mxCell id="QExua1J9MdYWWvg31LNP-122" style="edgeStyle=orthogonalEdgeStyle;rounded=0;orthogonalLoop=1;jettySize=auto;html=1;exitX=0.5;exitY=1;exitDx=0;exitDy=0;entryX=0.5;entryY=0;entryDx=0;entryDy=0;strokeWidth=3;" edge="1" parent="1" source="QExua1J9MdYWWvg31LNP-118" target="QExua1J9MdYWWvg31LNP-119">
          <mxGeometry relative="1" as="geometry" />
        </mxCell>
        <mxCell id="QExua1J9MdYWWvg31LNP-118" value="&lt;font style=&quot;font-size: 35px;&quot;&gt;FA&lt;/font&gt;" style="whiteSpace=wrap;html=1;aspect=fixed;strokeWidth=3;" vertex="1" parent="1">
          <mxGeometry x="460" y="1771" width="106" height="106" as="geometry" />
        </mxCell>
        <mxCell id="QExua1J9MdYWWvg31LNP-151" style="edgeStyle=orthogonalEdgeStyle;rounded=0;orthogonalLoop=1;jettySize=auto;html=1;exitX=0.5;exitY=1;exitDx=0;exitDy=0;entryX=0;entryY=0.25;entryDx=0;entryDy=0;strokeWidth=3;" edge="1" parent="1" source="QExua1J9MdYWWvg31LNP-119" target="QExua1J9MdYWWvg31LNP-146">
          <mxGeometry relative="1" as="geometry">
            <mxPoint x="780" y="2200" as="targetPoint" />
            <Array as="points">
              <mxPoint x="513" y="2208" />
            </Array>
          </mxGeometry>
        </mxCell>
        <mxCell id="QExua1J9MdYWWvg31LNP-119" value="&lt;font style=&quot;font-size: 35px;&quot;&gt;HA&lt;/font&gt;" style="whiteSpace=wrap;html=1;aspect=fixed;strokeWidth=3;" vertex="1" parent="1">
          <mxGeometry x="460" y="1981" width="106" height="106" as="geometry" />
        </mxCell>
        <mxCell id="QExua1J9MdYWWvg31LNP-123" style="edgeStyle=orthogonalEdgeStyle;rounded=0;orthogonalLoop=1;jettySize=auto;html=1;exitX=0.5;exitY=1;exitDx=0;exitDy=0;entryX=0.5;entryY=0;entryDx=0;entryDy=0;strokeWidth=3;" edge="1" parent="1" source="QExua1J9MdYWWvg31LNP-124" target="QExua1J9MdYWWvg31LNP-143">
          <mxGeometry relative="1" as="geometry" />
        </mxCell>
        <mxCell id="QExua1J9MdYWWvg31LNP-124" value="&lt;font style=&quot;font-size: 35px;&quot;&gt;HA&lt;/font&gt;" style="whiteSpace=wrap;html=1;aspect=fixed;strokeWidth=3;" vertex="1" parent="1">
          <mxGeometry x="810" y="1621" width="106" height="106" as="geometry" />
        </mxCell>
        <mxCell id="QExua1J9MdYWWvg31LNP-125" style="edgeStyle=orthogonalEdgeStyle;rounded=0;orthogonalLoop=1;jettySize=auto;html=1;entryX=0;entryY=0.25;entryDx=0;entryDy=0;entryPerimeter=0;strokeWidth=3;" edge="1" parent="1" target="QExua1J9MdYWWvg31LNP-128">
          <mxGeometry relative="1" as="geometry">
            <mxPoint x="640" y="1690" as="sourcePoint" />
          </mxGeometry>
        </mxCell>
        <mxCell id="QExua1J9MdYWWvg31LNP-126" style="edgeStyle=orthogonalEdgeStyle;rounded=0;orthogonalLoop=1;jettySize=auto;html=1;entryX=0;entryY=0.75;entryDx=0;entryDy=0;entryPerimeter=0;strokeWidth=3;" edge="1" parent="1" target="QExua1J9MdYWWvg31LNP-128">
          <mxGeometry relative="1" as="geometry">
            <mxPoint x="610" y="1730" as="sourcePoint" />
          </mxGeometry>
        </mxCell>
        <mxCell id="QExua1J9MdYWWvg31LNP-127" style="edgeStyle=orthogonalEdgeStyle;rounded=0;orthogonalLoop=1;jettySize=auto;html=1;exitX=1;exitY=0.5;exitDx=0;exitDy=0;exitPerimeter=0;strokeWidth=3;" edge="1" parent="1" source="QExua1J9MdYWWvg31LNP-128">
          <mxGeometry relative="1" as="geometry">
            <mxPoint x="810" y="1710" as="targetPoint" />
          </mxGeometry>
        </mxCell>
        <mxCell id="QExua1J9MdYWWvg31LNP-128" value="" style="shape=or;whiteSpace=wrap;html=1;strokeWidth=3;" vertex="1" parent="1">
          <mxGeometry x="690" y="1670" width="60" height="80" as="geometry" />
        </mxCell>
        <mxCell id="QExua1J9MdYWWvg31LNP-129" value="" style="endArrow=classic;html=1;rounded=0;strokeWidth=3;" edge="1" parent="1">
          <mxGeometry width="50" height="50" relative="1" as="geometry">
            <mxPoint x="610" y="1600" as="sourcePoint" />
            <mxPoint x="610" y="2360" as="targetPoint" />
          </mxGeometry>
        </mxCell>
        <mxCell id="QExua1J9MdYWWvg31LNP-130" style="edgeStyle=orthogonalEdgeStyle;rounded=0;orthogonalLoop=1;jettySize=auto;html=1;entryX=0;entryY=0.25;entryDx=0;entryDy=0;entryPerimeter=0;strokeWidth=3;" edge="1" parent="1" target="QExua1J9MdYWWvg31LNP-133">
          <mxGeometry relative="1" as="geometry">
            <mxPoint x="640" y="1860" as="sourcePoint" />
          </mxGeometry>
        </mxCell>
        <mxCell id="QExua1J9MdYWWvg31LNP-131" style="edgeStyle=orthogonalEdgeStyle;rounded=0;orthogonalLoop=1;jettySize=auto;html=1;entryX=0;entryY=0.75;entryDx=0;entryDy=0;entryPerimeter=0;strokeWidth=3;" edge="1" parent="1" target="QExua1J9MdYWWvg31LNP-133">
          <mxGeometry relative="1" as="geometry">
            <mxPoint x="610" y="1900" as="sourcePoint" />
          </mxGeometry>
        </mxCell>
        <mxCell id="QExua1J9MdYWWvg31LNP-132" style="edgeStyle=orthogonalEdgeStyle;rounded=0;orthogonalLoop=1;jettySize=auto;html=1;exitX=1;exitY=0.5;exitDx=0;exitDy=0;exitPerimeter=0;strokeWidth=3;entryX=0.021;entryY=0.881;entryDx=0;entryDy=0;entryPerimeter=0;" edge="1" parent="1" source="QExua1J9MdYWWvg31LNP-133" target="QExua1J9MdYWWvg31LNP-143">
          <mxGeometry relative="1" as="geometry">
            <mxPoint x="820" y="1870" as="targetPoint" />
            <Array as="points">
              <mxPoint x="852" y="1880" />
            </Array>
          </mxGeometry>
        </mxCell>
        <mxCell id="QExua1J9MdYWWvg31LNP-133" value="" style="shape=or;whiteSpace=wrap;html=1;strokeWidth=3;" vertex="1" parent="1">
          <mxGeometry x="690" y="1840" width="60" height="80" as="geometry" />
        </mxCell>
        <mxCell id="QExua1J9MdYWWvg31LNP-134" style="edgeStyle=orthogonalEdgeStyle;rounded=0;orthogonalLoop=1;jettySize=auto;html=1;entryX=0;entryY=0.25;entryDx=0;entryDy=0;entryPerimeter=0;strokeWidth=3;" edge="1" parent="1" target="QExua1J9MdYWWvg31LNP-137">
          <mxGeometry relative="1" as="geometry">
            <mxPoint x="640" y="2050" as="sourcePoint" />
          </mxGeometry>
        </mxCell>
        <mxCell id="QExua1J9MdYWWvg31LNP-135" style="edgeStyle=orthogonalEdgeStyle;rounded=0;orthogonalLoop=1;jettySize=auto;html=1;entryX=0;entryY=0.75;entryDx=0;entryDy=0;entryPerimeter=0;strokeWidth=3;" edge="1" parent="1" target="QExua1J9MdYWWvg31LNP-137">
          <mxGeometry relative="1" as="geometry">
            <mxPoint x="610" y="2090" as="sourcePoint" />
          </mxGeometry>
        </mxCell>
        <mxCell id="QExua1J9MdYWWvg31LNP-136" style="edgeStyle=orthogonalEdgeStyle;rounded=0;orthogonalLoop=1;jettySize=auto;html=1;exitX=1;exitY=0.5;exitDx=0;exitDy=0;exitPerimeter=0;strokeWidth=3;entryX=0;entryY=0.75;entryDx=0;entryDy=0;" edge="1" parent="1" source="QExua1J9MdYWWvg31LNP-137" target="QExua1J9MdYWWvg31LNP-145">
          <mxGeometry relative="1" as="geometry">
            <mxPoint x="809.9999999999998" y="1970.4705882352941" as="targetPoint" />
            <Array as="points">
              <mxPoint x="810" y="2070" />
            </Array>
          </mxGeometry>
        </mxCell>
        <mxCell id="QExua1J9MdYWWvg31LNP-137" value="" style="shape=or;whiteSpace=wrap;html=1;strokeWidth=3;" vertex="1" parent="1">
          <mxGeometry x="690" y="2030" width="60" height="80" as="geometry" />
        </mxCell>
        <mxCell id="QExua1J9MdYWWvg31LNP-138" style="edgeStyle=orthogonalEdgeStyle;rounded=0;orthogonalLoop=1;jettySize=auto;html=1;entryX=0;entryY=0.25;entryDx=0;entryDy=0;entryPerimeter=0;strokeWidth=3;" edge="1" parent="1" target="QExua1J9MdYWWvg31LNP-141">
          <mxGeometry relative="1" as="geometry">
            <mxPoint x="640" y="2240" as="sourcePoint" />
          </mxGeometry>
        </mxCell>
        <mxCell id="QExua1J9MdYWWvg31LNP-139" style="edgeStyle=orthogonalEdgeStyle;rounded=0;orthogonalLoop=1;jettySize=auto;html=1;entryX=0;entryY=0.75;entryDx=0;entryDy=0;entryPerimeter=0;strokeWidth=3;" edge="1" parent="1" target="QExua1J9MdYWWvg31LNP-141">
          <mxGeometry relative="1" as="geometry">
            <mxPoint x="610" y="2280" as="sourcePoint" />
          </mxGeometry>
        </mxCell>
        <mxCell id="QExua1J9MdYWWvg31LNP-140" style="edgeStyle=orthogonalEdgeStyle;rounded=0;orthogonalLoop=1;jettySize=auto;html=1;exitX=1;exitY=0.5;exitDx=0;exitDy=0;exitPerimeter=0;strokeWidth=3;entryX=0;entryY=0.75;entryDx=0;entryDy=0;" edge="1" parent="1" source="QExua1J9MdYWWvg31LNP-141" target="QExua1J9MdYWWvg31LNP-146">
          <mxGeometry relative="1" as="geometry">
            <mxPoint x="810" y="2260" as="targetPoint" />
          </mxGeometry>
        </mxCell>
        <mxCell id="QExua1J9MdYWWvg31LNP-141" value="" style="shape=or;whiteSpace=wrap;html=1;strokeWidth=3;" vertex="1" parent="1">
          <mxGeometry x="690" y="2220" width="60" height="80" as="geometry" />
        </mxCell>
        <mxCell id="QExua1J9MdYWWvg31LNP-142" style="edgeStyle=orthogonalEdgeStyle;rounded=0;orthogonalLoop=1;jettySize=auto;html=1;exitX=0.5;exitY=1;exitDx=0;exitDy=0;entryX=0.5;entryY=0;entryDx=0;entryDy=0;strokeWidth=3;" edge="1" parent="1" source="QExua1J9MdYWWvg31LNP-143" target="QExua1J9MdYWWvg31LNP-145">
          <mxGeometry relative="1" as="geometry" />
        </mxCell>
        <mxCell id="QExua1J9MdYWWvg31LNP-176" style="edgeStyle=orthogonalEdgeStyle;rounded=0;orthogonalLoop=1;jettySize=auto;html=1;exitX=1;exitY=0.5;exitDx=0;exitDy=0;entryX=0;entryY=0.25;entryDx=0;entryDy=0;strokeWidth=3;" edge="1" parent="1" source="QExua1J9MdYWWvg31LNP-143" target="QExua1J9MdYWWvg31LNP-153">
          <mxGeometry relative="1" as="geometry">
            <Array as="points">
              <mxPoint x="1150" y="1843" />
            </Array>
          </mxGeometry>
        </mxCell>
        <mxCell id="QExua1J9MdYWWvg31LNP-143" value="&lt;font style=&quot;font-size: 35px;&quot;&gt;FA&lt;/font&gt;" style="whiteSpace=wrap;html=1;aspect=fixed;strokeWidth=3;" vertex="1" parent="1">
          <mxGeometry x="810" y="1790" width="106" height="106" as="geometry" />
        </mxCell>
        <mxCell id="QExua1J9MdYWWvg31LNP-144" style="edgeStyle=orthogonalEdgeStyle;rounded=0;orthogonalLoop=1;jettySize=auto;html=1;exitX=0.5;exitY=1;exitDx=0;exitDy=0;entryX=0.5;entryY=0;entryDx=0;entryDy=0;strokeWidth=3;" edge="1" parent="1" source="QExua1J9MdYWWvg31LNP-145" target="QExua1J9MdYWWvg31LNP-146">
          <mxGeometry relative="1" as="geometry" />
        </mxCell>
        <mxCell id="QExua1J9MdYWWvg31LNP-177" style="edgeStyle=orthogonalEdgeStyle;rounded=0;orthogonalLoop=1;jettySize=auto;html=1;exitX=1;exitY=0.25;exitDx=0;exitDy=0;entryX=0;entryY=0.25;entryDx=0;entryDy=0;strokeWidth=3;" edge="1" parent="1" source="QExua1J9MdYWWvg31LNP-145" target="QExua1J9MdYWWvg31LNP-172">
          <mxGeometry relative="1" as="geometry">
            <Array as="points">
              <mxPoint x="1150" y="1998" />
            </Array>
          </mxGeometry>
        </mxCell>
        <mxCell id="QExua1J9MdYWWvg31LNP-145" value="&lt;font style=&quot;font-size: 35px;&quot;&gt;FA&lt;/font&gt;" style="whiteSpace=wrap;html=1;aspect=fixed;strokeWidth=3;" vertex="1" parent="1">
          <mxGeometry x="810" y="1971" width="106" height="106" as="geometry" />
        </mxCell>
        <mxCell id="QExua1J9MdYWWvg31LNP-178" style="edgeStyle=orthogonalEdgeStyle;rounded=0;orthogonalLoop=1;jettySize=auto;html=1;exitX=1;exitY=0.25;exitDx=0;exitDy=0;entryX=0;entryY=0.25;entryDx=0;entryDy=0;strokeWidth=3;" edge="1" parent="1" source="QExua1J9MdYWWvg31LNP-146" target="QExua1J9MdYWWvg31LNP-174">
          <mxGeometry relative="1" as="geometry">
            <Array as="points">
              <mxPoint x="916" y="2187" />
            </Array>
          </mxGeometry>
        </mxCell>
        <mxCell id="QExua1J9MdYWWvg31LNP-179" style="edgeStyle=orthogonalEdgeStyle;rounded=0;orthogonalLoop=1;jettySize=auto;html=1;exitX=0.5;exitY=1;exitDx=0;exitDy=0;entryX=0;entryY=0.25;entryDx=0;entryDy=0;strokeWidth=3;" edge="1" parent="1" source="QExua1J9MdYWWvg31LNP-146" target="QExua1J9MdYWWvg31LNP-175">
          <mxGeometry relative="1" as="geometry">
            <mxPoint x="1110" y="2400" as="targetPoint" />
            <Array as="points">
              <mxPoint x="863" y="2380" />
              <mxPoint x="1150" y="2380" />
            </Array>
          </mxGeometry>
        </mxCell>
        <mxCell id="QExua1J9MdYWWvg31LNP-146" value="&lt;font style=&quot;font-size: 35px;&quot;&gt;FA&lt;/font&gt;" style="whiteSpace=wrap;html=1;aspect=fixed;strokeWidth=3;" vertex="1" parent="1">
          <mxGeometry x="810" y="2181" width="106" height="106" as="geometry" />
        </mxCell>
        <mxCell id="QExua1J9MdYWWvg31LNP-149" style="edgeStyle=orthogonalEdgeStyle;rounded=0;orthogonalLoop=1;jettySize=auto;html=1;exitX=1;exitY=0.25;exitDx=0;exitDy=0;entryX=0.016;entryY=0.082;entryDx=0;entryDy=0;entryPerimeter=0;strokeWidth=3;" edge="1" parent="1" source="QExua1J9MdYWWvg31LNP-118" target="QExua1J9MdYWWvg31LNP-143">
          <mxGeometry relative="1" as="geometry" />
        </mxCell>
        <mxCell id="QExua1J9MdYWWvg31LNP-150" style="edgeStyle=orthogonalEdgeStyle;rounded=0;orthogonalLoop=1;jettySize=auto;html=1;exitX=1;exitY=0.25;exitDx=0;exitDy=0;strokeWidth=3;" edge="1" parent="1" source="QExua1J9MdYWWvg31LNP-119">
          <mxGeometry relative="1" as="geometry">
            <mxPoint x="810" y="2007" as="targetPoint" />
          </mxGeometry>
        </mxCell>
        <mxCell id="QExua1J9MdYWWvg31LNP-152" style="edgeStyle=orthogonalEdgeStyle;rounded=0;orthogonalLoop=1;jettySize=auto;html=1;exitX=0.5;exitY=1;exitDx=0;exitDy=0;entryX=0.5;entryY=0;entryDx=0;entryDy=0;strokeWidth=3;" edge="1" parent="1" source="QExua1J9MdYWWvg31LNP-153" target="QExua1J9MdYWWvg31LNP-172">
          <mxGeometry relative="1" as="geometry" />
        </mxCell>
        <mxCell id="QExua1J9MdYWWvg31LNP-153" value="&lt;font style=&quot;font-size: 35px;&quot;&gt;HA&lt;/font&gt;" style="whiteSpace=wrap;html=1;aspect=fixed;strokeWidth=3;" vertex="1" parent="1">
          <mxGeometry x="1150" y="1810" width="106" height="106" as="geometry" />
        </mxCell>
        <mxCell id="QExua1J9MdYWWvg31LNP-154" style="edgeStyle=orthogonalEdgeStyle;rounded=0;orthogonalLoop=1;jettySize=auto;html=1;entryX=0;entryY=0.25;entryDx=0;entryDy=0;entryPerimeter=0;strokeWidth=3;" edge="1" parent="1" target="QExua1J9MdYWWvg31LNP-157">
          <mxGeometry relative="1" as="geometry">
            <mxPoint x="980" y="1879" as="sourcePoint" />
          </mxGeometry>
        </mxCell>
        <mxCell id="QExua1J9MdYWWvg31LNP-155" style="edgeStyle=orthogonalEdgeStyle;rounded=0;orthogonalLoop=1;jettySize=auto;html=1;entryX=0;entryY=0.75;entryDx=0;entryDy=0;entryPerimeter=0;strokeWidth=3;" edge="1" parent="1" target="QExua1J9MdYWWvg31LNP-157">
          <mxGeometry relative="1" as="geometry">
            <mxPoint x="950" y="1919" as="sourcePoint" />
          </mxGeometry>
        </mxCell>
        <mxCell id="QExua1J9MdYWWvg31LNP-156" style="edgeStyle=orthogonalEdgeStyle;rounded=0;orthogonalLoop=1;jettySize=auto;html=1;exitX=1;exitY=0.5;exitDx=0;exitDy=0;exitPerimeter=0;strokeWidth=3;" edge="1" parent="1" source="QExua1J9MdYWWvg31LNP-157">
          <mxGeometry relative="1" as="geometry">
            <mxPoint x="1150" y="1899" as="targetPoint" />
          </mxGeometry>
        </mxCell>
        <mxCell id="QExua1J9MdYWWvg31LNP-157" value="" style="shape=or;whiteSpace=wrap;html=1;strokeWidth=3;" vertex="1" parent="1">
          <mxGeometry x="1030" y="1859" width="60" height="80" as="geometry" />
        </mxCell>
        <mxCell id="QExua1J9MdYWWvg31LNP-158" value="" style="endArrow=classic;html=1;rounded=0;strokeWidth=3;" edge="1" parent="1">
          <mxGeometry width="50" height="50" relative="1" as="geometry">
            <mxPoint x="950" y="1820" as="sourcePoint" />
            <mxPoint x="950" y="2580" as="targetPoint" />
          </mxGeometry>
        </mxCell>
        <mxCell id="QExua1J9MdYWWvg31LNP-159" style="edgeStyle=orthogonalEdgeStyle;rounded=0;orthogonalLoop=1;jettySize=auto;html=1;entryX=0;entryY=0.25;entryDx=0;entryDy=0;entryPerimeter=0;strokeWidth=3;" edge="1" parent="1" target="QExua1J9MdYWWvg31LNP-162">
          <mxGeometry relative="1" as="geometry">
            <mxPoint x="980" y="2049" as="sourcePoint" />
          </mxGeometry>
        </mxCell>
        <mxCell id="QExua1J9MdYWWvg31LNP-160" style="edgeStyle=orthogonalEdgeStyle;rounded=0;orthogonalLoop=1;jettySize=auto;html=1;entryX=0;entryY=0.75;entryDx=0;entryDy=0;entryPerimeter=0;strokeWidth=3;" edge="1" parent="1" target="QExua1J9MdYWWvg31LNP-162">
          <mxGeometry relative="1" as="geometry">
            <mxPoint x="950" y="2089" as="sourcePoint" />
          </mxGeometry>
        </mxCell>
        <mxCell id="QExua1J9MdYWWvg31LNP-161" style="edgeStyle=orthogonalEdgeStyle;rounded=0;orthogonalLoop=1;jettySize=auto;html=1;exitX=1;exitY=0.5;exitDx=0;exitDy=0;exitPerimeter=0;strokeWidth=3;entryX=0.021;entryY=0.881;entryDx=0;entryDy=0;entryPerimeter=0;" edge="1" parent="1" source="QExua1J9MdYWWvg31LNP-162" target="QExua1J9MdYWWvg31LNP-172">
          <mxGeometry relative="1" as="geometry">
            <mxPoint x="1160" y="2059" as="targetPoint" />
            <Array as="points">
              <mxPoint x="1192" y="2069" />
            </Array>
          </mxGeometry>
        </mxCell>
        <mxCell id="QExua1J9MdYWWvg31LNP-162" value="" style="shape=or;whiteSpace=wrap;html=1;strokeWidth=3;" vertex="1" parent="1">
          <mxGeometry x="1030" y="2029" width="60" height="80" as="geometry" />
        </mxCell>
        <mxCell id="QExua1J9MdYWWvg31LNP-163" style="edgeStyle=orthogonalEdgeStyle;rounded=0;orthogonalLoop=1;jettySize=auto;html=1;entryX=0;entryY=0.25;entryDx=0;entryDy=0;entryPerimeter=0;strokeWidth=3;" edge="1" parent="1" target="QExua1J9MdYWWvg31LNP-166">
          <mxGeometry relative="1" as="geometry">
            <mxPoint x="980" y="2239" as="sourcePoint" />
          </mxGeometry>
        </mxCell>
        <mxCell id="QExua1J9MdYWWvg31LNP-164" style="edgeStyle=orthogonalEdgeStyle;rounded=0;orthogonalLoop=1;jettySize=auto;html=1;entryX=0;entryY=0.75;entryDx=0;entryDy=0;entryPerimeter=0;strokeWidth=3;" edge="1" parent="1" target="QExua1J9MdYWWvg31LNP-166">
          <mxGeometry relative="1" as="geometry">
            <mxPoint x="950" y="2279" as="sourcePoint" />
          </mxGeometry>
        </mxCell>
        <mxCell id="QExua1J9MdYWWvg31LNP-165" style="edgeStyle=orthogonalEdgeStyle;rounded=0;orthogonalLoop=1;jettySize=auto;html=1;exitX=1;exitY=0.5;exitDx=0;exitDy=0;exitPerimeter=0;strokeWidth=3;entryX=0;entryY=0.75;entryDx=0;entryDy=0;" edge="1" parent="1" source="QExua1J9MdYWWvg31LNP-166" target="QExua1J9MdYWWvg31LNP-174">
          <mxGeometry relative="1" as="geometry">
            <mxPoint x="1149.9999999999998" y="2159.470588235294" as="targetPoint" />
            <Array as="points">
              <mxPoint x="1150" y="2259" />
            </Array>
          </mxGeometry>
        </mxCell>
        <mxCell id="QExua1J9MdYWWvg31LNP-166" value="" style="shape=or;whiteSpace=wrap;html=1;strokeWidth=3;" vertex="1" parent="1">
          <mxGeometry x="1030" y="2219" width="60" height="80" as="geometry" />
        </mxCell>
        <mxCell id="QExua1J9MdYWWvg31LNP-167" style="edgeStyle=orthogonalEdgeStyle;rounded=0;orthogonalLoop=1;jettySize=auto;html=1;entryX=0;entryY=0.25;entryDx=0;entryDy=0;entryPerimeter=0;strokeWidth=3;" edge="1" parent="1" target="QExua1J9MdYWWvg31LNP-170">
          <mxGeometry relative="1" as="geometry">
            <mxPoint x="980" y="2429" as="sourcePoint" />
          </mxGeometry>
        </mxCell>
        <mxCell id="QExua1J9MdYWWvg31LNP-168" style="edgeStyle=orthogonalEdgeStyle;rounded=0;orthogonalLoop=1;jettySize=auto;html=1;entryX=0;entryY=0.75;entryDx=0;entryDy=0;entryPerimeter=0;strokeWidth=3;" edge="1" parent="1" target="QExua1J9MdYWWvg31LNP-170">
          <mxGeometry relative="1" as="geometry">
            <mxPoint x="950" y="2469" as="sourcePoint" />
          </mxGeometry>
        </mxCell>
        <mxCell id="QExua1J9MdYWWvg31LNP-169" style="edgeStyle=orthogonalEdgeStyle;rounded=0;orthogonalLoop=1;jettySize=auto;html=1;exitX=1;exitY=0.5;exitDx=0;exitDy=0;exitPerimeter=0;strokeWidth=3;entryX=0;entryY=0.75;entryDx=0;entryDy=0;" edge="1" parent="1" source="QExua1J9MdYWWvg31LNP-170" target="QExua1J9MdYWWvg31LNP-175">
          <mxGeometry relative="1" as="geometry">
            <mxPoint x="1150" y="2449" as="targetPoint" />
          </mxGeometry>
        </mxCell>
        <mxCell id="QExua1J9MdYWWvg31LNP-170" value="" style="shape=or;whiteSpace=wrap;html=1;strokeWidth=3;" vertex="1" parent="1">
          <mxGeometry x="1030" y="2409" width="60" height="80" as="geometry" />
        </mxCell>
        <mxCell id="QExua1J9MdYWWvg31LNP-171" style="edgeStyle=orthogonalEdgeStyle;rounded=0;orthogonalLoop=1;jettySize=auto;html=1;exitX=0.5;exitY=1;exitDx=0;exitDy=0;entryX=0.5;entryY=0;entryDx=0;entryDy=0;strokeWidth=3;" edge="1" parent="1" source="QExua1J9MdYWWvg31LNP-172" target="QExua1J9MdYWWvg31LNP-174">
          <mxGeometry relative="1" as="geometry" />
        </mxCell>
        <mxCell id="QExua1J9MdYWWvg31LNP-172" value="&lt;font style=&quot;font-size: 35px;&quot;&gt;FA&lt;/font&gt;" style="whiteSpace=wrap;html=1;aspect=fixed;strokeWidth=3;" vertex="1" parent="1">
          <mxGeometry x="1150" y="1979" width="106" height="106" as="geometry" />
        </mxCell>
        <mxCell id="QExua1J9MdYWWvg31LNP-173" style="edgeStyle=orthogonalEdgeStyle;rounded=0;orthogonalLoop=1;jettySize=auto;html=1;exitX=0.5;exitY=1;exitDx=0;exitDy=0;entryX=0.5;entryY=0;entryDx=0;entryDy=0;strokeWidth=3;" edge="1" parent="1" source="QExua1J9MdYWWvg31LNP-174" target="QExua1J9MdYWWvg31LNP-175">
          <mxGeometry relative="1" as="geometry" />
        </mxCell>
        <mxCell id="QExua1J9MdYWWvg31LNP-174" value="&lt;font style=&quot;font-size: 35px;&quot;&gt;FA&lt;/font&gt;" style="whiteSpace=wrap;html=1;aspect=fixed;strokeWidth=3;" vertex="1" parent="1">
          <mxGeometry x="1150" y="2160" width="106" height="106" as="geometry" />
        </mxCell>
        <mxCell id="QExua1J9MdYWWvg31LNP-175" value="&lt;font style=&quot;font-size: 35px;&quot;&gt;FA&lt;/font&gt;" style="whiteSpace=wrap;html=1;aspect=fixed;strokeWidth=3;" vertex="1" parent="1">
          <mxGeometry x="1150" y="2370" width="106" height="106" as="geometry" />
        </mxCell>
      </root>
    </mxGraphModel>
  </diagram>
</mxfile>
